<svg width="65" height="20" viewBox="0 0 65 20" fill="none" xmlns="http://www.w3.org/2000/svg">
<path d="M46.7076 9.43367C46.6278 9.32833 46.5161 9.24406 46.3885 9.18085C46.2608 9.12291 46.1119 9.09131 45.9524 9.09131C45.7662 9.09131 45.596 9.12818 45.4312 9.20719C45.2663 9.28619 45.1227 9.38627 44.995 9.51795C44.8727 9.64436 44.7717 9.79711 44.6919 9.97619C44.6121 10.15 44.5696 10.3396 44.5642 10.5398C44.5536 10.7031 44.5749 10.8453 44.6174 10.9769C44.66 11.1034 44.7238 11.214 44.8089 11.3088C44.894 11.3983 45.0004 11.4668 45.1174 11.5195C45.3727 11.6195 45.7184 11.6143 46.0056 11.4984C46.1545 11.4352 46.2874 11.3509 46.4098 11.2403C46.5321 11.1297 46.6331 10.998 46.7129 10.8453C46.7927 10.6978 46.8512 10.5292 46.8831 10.3449C46.915 10.1553 46.915 9.97619 46.8831 9.82344C46.8512 9.67596 46.7927 9.54428 46.7076 9.43367Z" fill="#00F9D2"/>
<path d="M40.4475 9.43367C40.3678 9.32833 40.2561 9.24406 40.1284 9.18085C40.0008 9.12291 39.8519 9.09131 39.6923 9.09131C39.5062 9.09131 39.3307 9.12818 39.1658 9.20719C39.0009 9.28619 38.8573 9.38627 38.7297 9.51795C38.6073 9.64436 38.5063 9.79711 38.4265 9.97619C38.3467 10.15 38.3042 10.3396 38.2989 10.5398C38.2882 10.7031 38.3095 10.8453 38.352 10.9769C38.3946 11.1034 38.4584 11.214 38.5435 11.3088C38.6286 11.3983 38.735 11.4668 38.852 11.5195C39.1126 11.6195 39.4583 11.6143 39.7402 11.4984C39.8891 11.4352 40.0274 11.3509 40.1444 11.2403C40.2667 11.1297 40.3678 10.998 40.4475 10.8453C40.5273 10.6978 40.5911 10.5292 40.6177 10.3449C40.6496 10.1553 40.6496 9.97619 40.6177 9.82344C40.5858 9.67596 40.5273 9.54428 40.4422 9.43367H40.4475Z" fill="#00F9D2"/>
<path d="M52.2176 9.17566C51.4357 9.17566 50.8613 9.76031 50.8613 10.5662C50.8613 11.2088 51.2762 11.5933 51.9569 11.5933C52.7388 11.5933 53.3132 11.0034 53.3132 10.1975C53.3132 9.56016 52.8983 9.17566 52.2176 9.17566Z" fill="#00F9D2"/>
<path d="M64.2055 3.26064H28.5234C28.0979 3.26064 27.731 3.5556 27.6406 3.96643L26.5024 9.28098C25.678 13.1207 28.6351 16.734 32.5974 16.734H61.5303C61.9558 16.734 62.3228 16.439 62.4132 16.0282L64.982 4.20872C65.0884 3.71888 64.7108 3.25537 64.2055 3.25537V3.26064ZM33.5867 10.5556C33.5867 10.5556 32.023 10.5451 31.9592 10.5451C31.9486 10.5767 31.6933 11.9567 31.5497 12.5782C31.4646 12.9469 31.1082 12.9469 31.087 12.9469H30.4009H29.8477C29.8477 12.9469 29.7946 12.9469 29.752 12.9048C29.7095 12.8626 29.7201 12.8047 29.7201 12.8047L31.1295 5.84154C31.1402 5.7836 31.1933 5.74146 31.2518 5.74146H34.0281C35.6396 5.74146 36.6076 6.57367 36.6076 7.96419C36.6076 9.55487 35.4482 10.5398 33.5814 10.5398L33.5867 10.5556ZM41.5485 12.9469H40.2455C40.2455 12.9469 40.1923 12.9469 40.1604 12.91C40.1232 12.8784 40.1338 12.8152 40.1338 12.8152C40.1551 12.6993 40.1923 12.5361 40.2136 12.4044C39.703 12.831 39.1446 13.0206 38.4957 12.9943C37.299 12.9364 36.5119 12.1358 36.5012 10.9507C36.4906 9.5812 37.3469 8.33289 38.6287 7.84831C39.0222 7.70083 39.4264 7.63236 39.836 7.6587C40.2934 7.6903 40.7454 7.90625 41.0486 8.25388C41.0805 8.08007 41.1284 7.83251 41.1284 7.83251C41.139 7.77984 41.1869 7.74297 41.2401 7.74297H42.5431L42.6335 7.77984L42.6601 7.87465L41.6602 12.8574C41.6496 12.91 41.6017 12.9469 41.5485 12.9469ZM48.0478 12.2148C48.0212 12.3728 47.9733 12.6256 47.9361 12.7942C47.6861 14.1689 46.665 15.3487 44.862 15.3487C43.3622 15.3487 42.4952 14.6324 42.5112 13.4842C42.5112 13.4051 42.575 13.3419 42.6548 13.3419H43.9791C44.0429 13.3419 44.1014 13.3841 44.1174 13.4473C44.2025 13.7738 44.5323 13.9793 45.0375 13.9793C45.6438 13.9793 46.1757 13.6632 46.3352 12.7942L46.3937 12.4676C45.9044 12.8521 45.3673 13.0259 44.7556 12.9943C43.559 12.9364 42.7718 12.1358 42.7612 10.9507C42.7505 9.5812 43.6015 8.33289 44.8886 7.84831C45.2768 7.70083 45.6811 7.63236 46.0959 7.6587C46.5533 7.6903 47.0054 7.90625 47.3085 8.25388C47.3404 8.08007 47.3883 7.83251 47.3883 7.83251C47.3989 7.77457 47.4468 7.74297 47.5 7.74297H48.803L48.8935 7.77984L48.92 7.87465L48.0478 12.2148ZM51.8506 13.1576C50.2284 13.1576 49.1807 12.1832 49.1807 10.6715C49.1807 8.90174 50.4997 7.62183 52.3133 7.62183C53.9354 7.62183 54.9832 8.59625 54.9832 10.1079C54.9832 11.8777 53.6642 13.1576 51.8506 13.1576ZM59.6529 8.17488L59.1902 9.20197L59.121 9.26517H59.0306C58.5626 9.03869 58.0839 8.92808 57.7169 8.95968C57.3499 8.99128 57.3659 9.15983 57.3712 9.21777C57.3818 9.31785 57.3978 9.37052 57.7861 9.57594L58.4402 9.9025C59.1423 10.2554 59.4508 10.6557 59.5093 11.2983C59.605 12.357 58.9242 13.0259 57.6425 13.1365C56.7862 13.2103 55.9565 12.989 55.2278 12.5045C55.18 12.4676 55.164 12.4044 55.1906 12.3517L55.7756 11.3352L55.8501 11.2772L55.9405 11.293C56.5309 11.6565 57.084 11.825 57.5414 11.7881C57.6903 11.7776 57.9403 11.7197 57.919 11.509C57.9084 11.4142 57.8818 11.3404 57.584 11.1824L56.8553 10.8032C56.1958 10.4555 55.8501 9.99731 55.7969 9.39685C55.7065 8.40136 56.366 7.7219 57.5148 7.62709C58.1743 7.56916 58.887 7.7061 59.5837 8.02213C59.6422 8.04847 59.6688 8.11694 59.6422 8.17488H59.6529Z" fill="#00F9D2"/>
<path d="M33.9112 7.24772C33.9112 7.24772 32.6986 7.23718 32.6294 7.23718C32.6188 7.31092 32.2731 9.01221 32.2625 9.05435C32.305 9.05435 33.6453 9.04381 33.6453 9.04381C34.4165 9.04381 34.8579 8.68038 34.8579 8.04305C34.8579 7.52688 34.5228 7.24772 33.9112 7.24772Z" fill="#00F9D2"/>
<path d="M13.6633 0.205724H13.4346L12.3869 0.19519H0.345705C0.154238 0.19519 0 0.347937 0 0.537554V2.42846C0 4.50371 1.47855 5.64668 4.16442 5.64668L13.6687 5.66248C14.6739 5.66248 15.4876 6.46835 15.4876 7.46384C15.4876 8.45933 14.6739 9.2652 13.6687 9.2652H3.00498C2.85074 9.2652 2.71246 9.37054 2.67523 9.51802L0.154238 19.3834C0.127645 19.4834 0.154238 19.5888 0.21806 19.6731C0.281883 19.7573 0.382935 19.8047 0.483987 19.8047H3.86126C5.12708 19.8047 5.73339 18.7618 5.87699 18.2193L6.87156 14.6324H13.658C17.6735 14.6324 20.9391 11.3984 20.9391 7.4217C20.9391 3.44501 17.6735 0.210992 13.658 0.210992" fill="#00F9D2"/>
</svg>
