<svg width="219" height="29" viewBox="0 0 219 29" fill="none" xmlns="http://www.w3.org/2000/svg">
<g clip-path="url(#clip0_3_713)">
<path d="M55.558 1.08289C53.998 1.08289 52.841 2.25475 52.8186 3.8568C52.7962 5.13992 53.5949 5.90386 54.9683 5.90386C56.5284 5.90386 57.6854 4.73199 57.7078 3.12994C57.7302 1.84682 56.9315 1.08289 55.558 1.08289Z" fill="#00F8D0"/>
<path d="M50.7285 1.72807C50.6688 1.66132 50.5866 1.61682 50.4971 1.61682H47.0709C46.9291 1.61682 46.8022 1.72066 46.7723 1.86158C46.7723 1.86158 45.4511 8.3736 45.369 8.82603C44.5106 7.3204 42.8311 6.39329 40.7336 6.39329C36.5684 6.39329 33.5527 9.72347 33.5527 14.3071C33.5527 18.0823 35.8369 20.6115 39.2332 20.6115C40.8679 20.6115 42.3011 19.9662 43.3685 18.7869C43.3013 19.1132 43.2267 19.4544 43.152 19.8475C43.1371 19.9365 43.1595 20.0255 43.2192 20.0923C43.2789 20.159 43.361 20.2035 43.4506 20.2035H46.8619C47.0037 20.2035 47.1306 20.0997 47.1605 19.9588L50.7882 1.98767C50.8031 1.89866 50.7882 1.80966 50.721 1.73549M44.1523 13.5061C44.0702 13.9882 43.9134 14.4406 43.6895 14.8485C43.4655 15.2565 43.1968 15.6125 42.8684 15.9091C42.5549 16.2058 42.1891 16.4357 41.786 16.6063C41.0321 16.9178 40.0991 16.9401 39.4123 16.6583C39.0914 16.5322 38.8152 16.3393 38.5912 16.0946C38.3673 15.8498 38.1956 15.5531 38.0762 15.2045C37.9642 14.856 37.912 14.4554 37.9344 14.0178C37.9642 13.4912 38.0837 12.9869 38.2852 12.5122C38.4867 12.045 38.7629 11.6296 39.0914 11.281C39.4198 10.9324 39.8154 10.6506 40.2558 10.4503C40.6888 10.2501 41.1665 10.1462 41.6591 10.1462C42.0921 10.1462 42.4877 10.2278 42.8311 10.3836C43.1744 10.5393 43.4581 10.7693 43.6895 11.0511C43.9134 11.3404 44.0702 11.6889 44.1597 12.0969C44.2493 12.5122 44.2493 12.9795 44.1597 13.4987" fill="#00F8D0"/>
<path d="M56.0955 7.86194H52.5648C52.4155 7.86194 52.2886 7.95836 52.2587 8.08444L49.8701 19.8699L49.9373 20.0998C49.997 20.1665 50.0866 20.2036 50.1762 20.2036H53.7143C53.8636 20.2036 53.998 20.1072 54.0204 19.9811L56.409 8.1957L56.3418 7.96577C56.2821 7.89902 56.1925 7.86194 56.0955 7.86194Z" fill="#00F8D0"/>
<path d="M4.66531 19.1281C5.02361 17.5409 5.68794 14.003 5.71034 13.914C5.86709 13.914 9.86804 13.9437 9.86804 13.9437C14.6378 13.9437 17.6012 11.4071 17.6012 7.32782C17.6012 3.75288 15.138 1.61682 11.0026 1.61682H3.90394C3.75465 1.61682 3.62775 1.72066 3.59789 1.869L2.02197e-05 19.7288C-0.0149087 19.8178 0.0149492 19.9143 0.0746649 19.981C0.134381 20.0478 0.223954 20.0923 0.313528 20.0923H1.71685L3.47846 20.0774C3.47846 20.0774 4.44138 20.0923 4.65785 19.1207M10.0024 10.0646C10.0024 10.0646 6.58368 10.0795 6.47918 10.0795C6.50157 9.97565 7.38984 5.59969 7.4197 5.42168C7.59138 5.4291 10.6891 5.45135 10.6891 5.45135C12.2492 5.45135 13.1076 6.1782 13.1076 7.49099C13.1076 9.13012 11.973 10.0646 10.0024 10.0646Z" fill="#00F8D0"/>
<path d="M82.2808 6.39331C77.6379 6.39331 74.2639 9.68641 74.2639 14.2255C74.2639 18.1046 76.9362 20.6115 81.0864 20.6115C85.7293 20.6115 89.1033 17.3184 89.1033 12.7792C89.1033 8.90022 86.4235 6.39331 82.2808 6.39331ZM81.3552 16.5989C79.601 16.5989 78.5485 15.6125 78.5485 13.9659C78.5485 11.8966 80.0041 10.3984 82.012 10.3984C83.7662 10.3984 84.8187 11.3849 84.8187 13.0314C84.8187 15.1007 83.3631 16.5989 81.3626 16.5989" fill="#00F8D0"/>
<path d="M74.7715 1.72807C74.7118 1.66132 74.6297 1.61682 74.5401 1.61682H71.1214C70.9796 1.61682 70.8527 1.72066 70.8228 1.86158C70.8228 1.86158 69.5016 8.3736 69.4195 8.82603C68.5536 7.3204 66.8741 6.39329 64.7841 6.39329C60.6189 6.39329 57.6033 9.72347 57.6033 14.3071C57.6033 18.0823 59.8874 20.6115 63.2837 20.6115C64.9184 20.6115 66.3442 19.9662 67.419 18.7869C67.3519 19.1132 67.2847 19.4544 67.2026 19.8475C67.1876 19.9365 67.21 20.0255 67.2698 20.0923C67.3295 20.159 67.4116 20.2035 67.5012 20.2035H70.9199C71.0617 20.2035 71.1886 20.0997 71.2185 19.9588L74.8462 1.98767C74.8611 1.89866 74.8462 1.80966 74.779 1.73549M68.27 13.5061C68.1879 13.9882 68.0311 14.4406 67.8072 14.8485C67.5833 15.2565 67.3145 15.6125 66.9936 15.9091C66.6801 16.2058 66.3143 16.4357 65.9112 16.6063C65.1573 16.9178 64.2243 16.9401 63.5375 16.6583C63.2166 16.5322 62.9404 16.3393 62.7164 16.0946C62.4925 15.8498 62.3208 15.5531 62.2014 15.2045C62.0894 14.856 62.0372 14.4554 62.0596 14.0178C62.0894 13.4912 62.2088 12.9869 62.4104 12.5122C62.6119 12.045 62.8881 11.6296 63.2166 11.281C63.545 10.9324 63.9331 10.6506 64.3735 10.4503C64.8065 10.2501 65.2842 10.1462 65.7769 10.1462C66.2098 10.1462 66.6054 10.2278 66.9488 10.3836C67.2922 10.5393 67.5758 10.7693 67.8072 11.0511C68.0311 11.3404 68.1879 11.6889 68.2775 12.0969C68.367 12.5122 68.367 12.9795 68.2775 13.4987" fill="#00F8D0"/>
<path d="M100.39 7.42435C98.6055 6.61591 96.7767 6.26732 95.0972 6.41566C92.1562 6.66783 90.4693 8.4108 90.7007 10.9622C90.835 12.4975 91.7233 13.6768 93.4103 14.5668L95.2689 15.5384C96.0303 15.9464 96.0975 16.1318 96.1199 16.3691C96.1647 16.918 95.5376 17.0589 95.157 17.0885C93.9925 17.1924 92.5742 16.7548 91.059 15.8203L90.8276 15.7832L90.641 15.9241L89.1481 18.5348C89.0734 18.6683 89.1107 18.8389 89.2376 18.9279C91.0888 20.1814 93.2237 20.7451 95.4033 20.5522C98.6727 20.2704 100.412 18.5497 100.173 15.8351C100.031 14.196 99.24 13.165 97.4411 12.2602L95.7616 11.4221C94.7763 10.888 94.724 10.7545 94.7016 10.4949C94.6867 10.354 94.6494 9.91643 95.5899 9.83484C96.523 9.75326 97.7471 10.0351 98.9489 10.6062H99.1803L99.352 10.4579L100.539 7.81745C100.606 7.66911 100.539 7.49111 100.39 7.42435Z" fill="#00F8D0"/>
<path d="M118.879 1.95059C118.819 1.83933 118.707 1.77258 118.581 1.77258H113.744C113.632 1.77258 113.527 1.8245 113.467 1.9135C113.467 1.9135 108.668 8.6777 108.332 9.32297C108.242 8.70737 105.883 2.00992 105.883 2.00992C105.839 1.869 105.712 1.77258 105.562 1.77258H101.33C101.226 1.77258 101.121 1.8245 101.061 1.9135C101.002 2.00251 100.987 2.11376 101.017 2.21018L105.503 13.4987L104.159 20.0626C104.137 20.159 104.167 20.2554 104.226 20.337C104.286 20.4112 104.383 20.4557 104.48 20.4557H107.899C108.347 20.4557 108.735 20.1368 108.817 19.6992L110.011 13.6173L118.827 2.29176C118.902 2.19535 118.909 2.06184 118.857 1.95059" fill="#00F8D0"/>
<path d="M129.15 7.07564C129.09 7.00889 129.008 6.96439 128.919 6.96439H125.582C125.44 6.96439 125.313 7.06081 125.291 7.20173C125.291 7.20173 125.164 7.83217 125.082 8.27718V8.29201C124.328 7.38715 123.149 6.83089 121.984 6.75672C120.917 6.68997 119.887 6.86055 118.887 7.23882C115.602 8.47743 113.415 11.6815 113.452 15.1971C113.482 18.2529 115.498 20.3074 118.558 20.4483C120.208 20.5224 121.641 20.0404 122.94 18.9352C122.873 19.2616 122.783 19.6918 122.731 19.9884L122.798 20.2258C122.858 20.2925 122.94 20.3296 123.022 20.3296H126.351C126.493 20.3296 126.612 20.2258 126.642 20.0923L129.202 7.31298C129.217 7.22398 129.202 7.13498 129.143 7.06823M123.985 13.647C123.903 14.1068 123.753 14.537 123.544 14.9301C123.335 15.3158 123.074 15.657 122.761 15.9462C122.462 16.2281 122.111 16.4506 121.723 16.6138C121.006 16.9104 120.111 16.9327 119.454 16.6657C119.148 16.5396 118.886 16.3616 118.67 16.1317C118.454 15.9017 118.289 15.6125 118.185 15.2861C118.073 14.9524 118.028 14.5667 118.05 14.1513C118.073 13.647 118.185 13.1649 118.386 12.7199C118.58 12.2749 118.842 11.8744 119.155 11.5406C119.469 11.2068 119.842 10.9398 120.26 10.747C120.678 10.5542 121.126 10.4577 121.596 10.4577C122.007 10.4577 122.38 10.5319 122.716 10.6877C123.044 10.836 123.313 11.0511 123.529 11.3255C123.746 11.5999 123.895 11.9337 123.977 12.3268C124.059 12.7199 124.059 13.1723 123.977 13.6618" fill="#00F8D0"/>
<path d="M25.7673 6.37851C21.2066 6.37851 17.8923 9.67902 17.8923 14.233C17.8923 18.1565 20.5497 20.5967 24.8268 20.5967C26.7601 20.5967 28.365 20.0997 30.0519 18.9798C30.2012 18.8834 30.2236 18.6609 30.0967 18.5348L27.9992 16.3765C27.9096 16.2875 27.7678 16.2652 27.6559 16.3245C26.7377 16.8141 25.8718 17.0292 24.9089 17.0292C22.9532 17.0292 21.8112 16.1391 21.7888 14.589L31.3732 14.5593C31.515 14.5593 31.6419 14.4629 31.6717 14.322C31.8882 13.3504 32.0151 12.6458 32.0151 11.9041C32.0151 8.49232 29.6265 6.37109 25.7748 6.37109M22.2217 11.6371C22.8562 10.1315 23.9983 9.35268 25.6927 9.35268C27.3871 9.35268 28.2903 10.1315 28.3426 11.6519C28.0664 11.6519 22.5128 11.6371 22.2143 11.6371" fill="#00F8D0"/>
<path d="M179.752 13.2836C179.58 13.0537 179.349 12.8682 179.065 12.7422C178.789 12.6161 178.475 12.5493 178.125 12.5493C177.729 12.5493 177.356 12.6309 177.005 12.7941C176.654 12.9572 176.341 13.1798 176.072 13.4616C175.803 13.736 175.594 14.0698 175.422 14.4406C175.258 14.8189 175.161 15.2194 175.146 15.6496C175.131 15.9982 175.161 16.3097 175.258 16.5915C175.348 16.8659 175.49 17.1033 175.661 17.3035C175.848 17.4964 176.064 17.6447 176.326 17.756C176.871 17.9785 177.617 17.9562 178.229 17.7115C178.55 17.5705 178.841 17.3925 179.095 17.1552C179.356 16.9179 179.573 16.6286 179.752 16.3023C179.931 15.9833 180.05 15.6199 180.118 15.2268C180.185 14.8115 180.185 14.4406 180.118 14.1069C180.043 13.7879 179.923 13.4987 179.737 13.2688L179.752 13.2836Z" fill="#00F8D0"/>
<path d="M166.331 13.2836C166.151 13.0537 165.928 12.8682 165.644 12.7422C165.368 12.6161 165.054 12.5493 164.711 12.5493C164.315 12.5493 163.935 12.6309 163.584 12.7941C163.233 12.9572 162.919 13.1798 162.651 13.4616C162.382 13.736 162.173 14.0698 162.001 14.4406C161.837 14.8189 161.74 15.2194 161.725 15.6496C161.71 15.9982 161.74 16.3097 161.837 16.5915C161.927 16.8659 162.068 17.1033 162.24 17.3035C162.427 17.4964 162.643 17.6447 162.904 17.756C163.457 17.9785 164.203 17.9562 164.808 17.7115C165.129 17.5705 165.427 17.3925 165.674 17.1552C165.935 16.9179 166.151 16.6286 166.331 16.3023C166.502 15.9833 166.637 15.6199 166.696 15.2268C166.771 14.8115 166.771 14.4406 166.696 14.1069C166.629 13.7879 166.502 13.4987 166.316 13.2688L166.331 13.2836Z" fill="#00F8D0"/>
<path d="M191.576 12.7347C189.896 12.7347 188.672 13.9882 188.672 15.7237C188.672 17.1107 189.56 17.934 191.023 17.934C192.703 17.934 193.927 16.6657 193.927 14.9376C193.927 13.5654 193.039 12.7347 191.576 12.7347Z" fill="#00F8D0"/>
<path d="M217.291 -2.94093e-05H140.757C139.847 -2.94093e-05 139.055 0.637822 138.861 1.52043L136.421 12.9647C134.659 21.2271 140.996 29 149.491 29H211.55C212.461 29 213.252 28.3695 213.446 27.4795L218.963 2.04703C219.194 0.993833 218.38 -0.00744629 217.291 -0.00744629V-2.94093e-05ZM151.618 15.6941C151.618 15.6941 148.259 15.6793 148.132 15.6793C148.117 15.7534 147.558 18.7128 147.259 20.0552C147.072 20.8414 146.311 20.8562 146.274 20.8562H144.796L143.616 20.8637C143.616 20.8637 143.504 20.8637 143.415 20.7747C143.325 20.6856 143.348 20.567 143.348 20.567L146.363 5.58488C146.393 5.46621 146.505 5.37721 146.624 5.37721H152.574C156.037 5.37721 158.112 7.16468 158.112 10.1611C158.112 13.5803 155.619 15.7089 151.626 15.7089L151.618 15.6941ZM168.697 20.834H165.898C165.898 20.834 165.786 20.8266 165.711 20.7524C165.629 20.6782 165.659 20.5521 165.659 20.5521C165.704 20.3074 165.778 19.944 165.831 19.6695C164.733 20.5892 163.531 20.9972 162.151 20.9378C159.583 20.8192 157.896 19.0984 157.866 16.5396C157.836 13.5877 159.672 10.9028 162.427 9.86442C163.27 9.5455 164.136 9.39716 165.017 9.44908C165.995 9.51583 166.973 9.98309 167.622 10.7322C167.689 10.3539 167.794 9.82734 167.794 9.82734C167.809 9.71608 167.921 9.6345 168.033 9.6345H170.832L171.026 9.71608L171.078 9.91634L168.928 20.6411C168.913 20.7524 168.801 20.834 168.689 20.834H168.697ZM182.64 19.2542C182.588 19.5954 182.484 20.1442 182.402 20.5002C181.864 23.4596 179.67 25.9887 175.811 25.9887C172.593 25.9887 170.735 24.446 170.765 21.9762C170.765 21.813 170.906 21.6721 171.071 21.6721H173.915C174.056 21.6721 174.176 21.7611 174.213 21.902C174.4 22.6066 175.109 23.0516 176.191 23.0516C177.49 23.0516 178.64 22.3767 178.975 20.5002L179.102 19.7956C178.05 20.6189 176.908 20.9972 175.587 20.9304C173.019 20.8117 171.332 19.091 171.302 16.5322C171.272 13.5803 173.101 10.8954 175.863 9.857C176.691 9.53808 177.565 9.38974 178.453 9.44166C179.431 9.50841 180.409 9.97567 181.058 10.7248C181.125 10.3465 181.23 9.81992 181.23 9.81992C181.245 9.70125 181.349 9.62708 181.469 9.62708H184.268L184.462 9.70867L184.514 9.90892L182.64 19.2542ZM190.799 21.279C187.321 21.279 185.081 19.18 185.081 15.924C185.081 12.1192 187.903 9.36007 191.799 9.36007C195.278 9.36007 197.517 11.4591 197.517 14.7151C197.517 18.5199 194.696 21.279 190.799 21.279ZM207.527 10.5542L206.534 12.7718L206.392 12.9053H206.198C205.191 12.4158 204.168 12.1859 203.384 12.2527C202.593 12.3194 202.63 12.6828 202.638 12.8089C202.653 13.024 202.698 13.1353 203.526 13.5877L204.929 14.2923C206.437 15.0488 207.102 15.9166 207.221 17.2887C207.423 19.5657 205.959 21.0046 203.22 21.2493C201.384 21.4125 199.6 20.9378 198.047 19.8846C197.943 19.8105 197.905 19.6695 197.973 19.5509L199.219 17.3555L199.376 17.2368L199.57 17.2665C200.839 18.0452 202.026 18.4161 203.004 18.3271C203.325 18.2974 203.855 18.1862 203.81 17.7189C203.795 17.5186 203.735 17.3629 203.093 17.0217L201.533 16.2133C200.115 15.4642 199.376 14.4777 199.264 13.1872C199.077 11.0511 200.488 9.59 202.951 9.37491C204.362 9.24882 205.892 9.5455 207.393 10.2278C207.52 10.2872 207.579 10.4355 207.52 10.5616L207.527 10.5542Z" fill="#00F8D0"/>
<path d="M152.312 8.58136C152.312 8.58136 149.707 8.56653 149.565 8.56653C149.551 8.72228 148.797 12.3788 148.782 12.4752C148.871 12.4752 151.745 12.4604 151.745 12.4604C153.395 12.4604 154.35 11.6816 154.35 10.3021C154.35 9.18955 153.634 8.58878 152.32 8.58878L152.312 8.58136Z" fill="#00F8D0"/>
</g>
<defs>
<clipPath id="clip0_3_713">
<rect width="219" height="29" fill="white"/>
</clipPath>
</defs>
</svg>
