<svg width="85" height="28" viewBox="0 0 85 28" fill="none" xmlns="http://www.w3.org/2000/svg">
<g clip-path="url(#clip0_3_729)">
<path d="M36.8476 27.5355H29.9137L34.2483 0.486572H41.1822L36.8476 27.5355Z" fill="white"/>
<path d="M24.0762 0.486572L17.4618 19.0943L16.6776 15.0911L14.347 2.9268C14.347 2.9268 14.0638 0.493945 11.0579 0.493945H0.130691L0 0.951027C0 0.951027 3.34714 1.65877 7.25335 4.04739L13.2797 27.5503H20.504L31.5401 0.486572H24.0762Z" fill="white"/>
<path d="M78.6324 27.5355H85L79.4529 0.486572H73.8767C71.2992 0.486572 70.6748 2.49921 70.6748 2.49921L60.3284 27.5355H67.56L69.0049 23.5176H77.8193L78.6324 27.5355ZM71.0015 17.9663L74.6464 7.84413L76.6939 17.9663H71.0015Z" fill="white"/>
<path d="M60.8729 6.98894L61.8604 1.17957C61.8604 1.17957 58.8037 0 55.6235 0C52.182 0 44.0065 1.52607 44.0065 8.95735C44.0065 15.9463 53.5978 16.0348 53.5978 19.7062C53.5978 23.3776 44.994 22.7214 42.1551 20.4065L41.1241 26.4813C41.1241 26.4813 44.2244 28.0074 48.951 28.0074C53.6777 28.0074 60.8221 25.5155 60.8221 18.7478C60.8221 11.98 51.1437 11.0585 51.1437 7.99895C51.1437 4.93944 57.8961 5.33017 60.8657 6.99631L60.8729 6.98894Z" fill="white"/>
</g>
<defs>
<clipPath id="clip0_3_729">
<rect width="85" height="28" fill="white"/>
</clipPath>
</defs>
</svg>
