<svg width="151" height="34" viewBox="0 0 151 34" fill="none" xmlns="http://www.w3.org/2000/svg">
<g clip-path="url(#clip0_3_686)">
<path d="M88.9479 8.58972C87.6359 8.58972 86.6628 9.60028 86.6411 10.9843C86.6195 12.09 87.2971 12.7491 88.4505 12.7491C89.7625 12.7491 90.7357 11.7385 90.7573 10.3545C90.7789 9.24878 90.1013 8.58972 88.9479 8.58972Z" fill="white"/>
<path d="M79.3457 19.281C79.2736 19.6985 79.1439 20.0866 78.9564 20.4381C78.769 20.7896 78.5383 21.0971 78.2716 21.3534C78.0049 21.6097 77.6949 21.8074 77.3561 21.9539C76.7218 22.2248 75.9288 22.2395 75.3521 21.9978C75.0854 21.888 74.8475 21.7269 74.6601 21.5145C74.4727 21.3022 74.3213 21.0459 74.2276 20.7529C74.1339 20.4527 74.0906 20.1085 74.1122 19.7277C74.1338 19.2737 74.2348 18.8417 74.4078 18.4316C74.5808 18.0288 74.8043 17.67 75.0854 17.3698C75.3593 17.0695 75.6909 16.8279 76.0658 16.6521C76.4334 16.4764 76.8299 16.3885 77.248 16.3885C77.6156 16.3885 77.94 16.4618 78.2356 16.5936C78.5239 16.7327 78.769 16.9231 78.9564 17.1721C79.1439 17.421 79.2808 17.7213 79.3529 18.0728C79.425 18.4316 79.425 18.8344 79.3529 19.281M84.8892 9.14622C84.8387 9.08764 84.7666 9.05103 84.6945 9.05103H81.8111C81.6885 9.05103 81.5804 9.1389 81.5588 9.26339C81.5588 9.26339 80.4486 14.8727 80.3766 15.2608C79.6485 13.9647 78.2356 13.1665 76.4695 13.1665C72.966 13.1665 70.4214 16.0297 70.4214 19.984C70.4214 23.2354 72.3461 25.4176 75.2079 25.4176C76.5848 25.4176 77.7886 24.8611 78.6897 23.8432C78.6321 24.1215 78.5744 24.4144 78.5095 24.7585C78.4951 24.8318 78.5167 24.9123 78.5672 24.9709C78.6176 25.0295 78.6897 25.0661 78.7618 25.0661H81.6381C81.7606 25.0661 81.8688 24.9782 81.8904 24.8537L84.9469 9.37323C84.9613 9.3 84.9469 9.21945 84.8964 9.16087" fill="white"/>
<path d="M89.4018 14.426H86.4247C86.3021 14.426 86.1868 14.5066 86.1652 14.6237L84.1467 24.7732L84.2044 24.9709C84.2549 25.0295 84.3269 25.0588 84.4062 25.0588H87.3834C87.5132 25.0588 87.6213 24.9783 87.6429 24.8684L89.6614 14.7189L89.6037 14.5212C89.5532 14.4626 89.4811 14.4333 89.4018 14.4333" fill="white"/>
<path d="M50.5687 16.3299C50.5687 16.3299 47.6852 16.3446 47.5987 16.3446C47.6204 16.2494 48.3628 12.4928 48.3917 12.3317C48.5359 12.3317 51.1454 12.3536 51.1454 12.3536C52.4574 12.3536 53.1854 12.9761 53.1854 14.1111C53.1854 15.5244 52.2339 16.3299 50.5687 16.3299ZM46.0705 24.1288C46.3733 22.7594 46.9355 19.7204 46.9499 19.6399C47.0797 19.6399 50.4534 19.6618 50.4534 19.6618C54.4758 19.6618 56.97 17.4796 56.97 13.9647C56.97 10.8817 54.8939 9.0437 51.4121 9.0437H45.4361C45.3136 9.0437 45.2054 9.13158 45.1766 9.25606L42.149 24.6414C42.1346 24.7219 42.1634 24.8025 42.2139 24.8611C42.2643 24.9196 42.3364 24.9563 42.4157 24.9563H43.5979L45.0829 24.9416C45.0829 24.9416 45.8903 24.9563 46.0777 24.1215" fill="white"/>
<path d="M110.682 21.9612C109.204 21.9612 108.317 21.1118 108.317 19.6985C108.317 17.919 109.543 16.6229 111.23 16.6229C112.707 16.6229 113.594 17.4723 113.594 18.8857C113.594 20.6651 112.369 21.9612 110.682 21.9612ZM111.46 13.1665C107.546 13.1665 104.706 16.0004 104.706 19.9109C104.706 23.2574 106.962 25.4103 110.451 25.4103C114.365 25.4103 117.206 22.5764 117.206 18.666C117.206 15.3267 114.949 13.1665 111.46 13.1665Z" fill="white"/>
<path d="M99.6525 19.281C99.5804 19.6985 99.4507 20.0866 99.2633 20.4381C99.0758 20.7896 98.8452 21.0971 98.5784 21.3534C98.3117 21.6097 98.0017 21.8074 97.6629 21.9539C97.0286 22.2248 96.2428 22.2395 95.6589 21.9978C95.3922 21.888 95.1543 21.7269 94.9669 21.5145C94.7723 21.3022 94.6281 21.0459 94.5344 20.7529C94.4407 20.4527 94.3974 20.1085 94.419 19.7277C94.4407 19.2737 94.5416 18.8417 94.7146 18.4316C94.8876 18.0288 95.1111 17.67 95.3922 17.3698C95.6661 17.0695 95.9977 16.8279 96.3726 16.6521C96.7402 16.4764 97.1367 16.3885 97.5548 16.3885C97.9152 16.3885 98.254 16.4618 98.5424 16.5936C98.8307 16.7327 99.0686 16.9231 99.2633 17.1721C99.4507 17.421 99.5876 17.7213 99.6597 18.0728C99.7318 18.4316 99.7318 18.8344 99.6597 19.281M105.146 9.14622C105.095 9.08764 105.023 9.05103 104.951 9.05103H102.067C101.945 9.05103 101.844 9.1389 101.815 9.26339C101.815 9.26339 100.705 14.8727 100.633 15.2608C99.9048 13.9647 98.4919 13.1665 96.7258 13.1665C93.2224 13.1665 90.6777 16.0297 90.6777 19.984C90.6777 23.2354 92.6024 25.4176 95.4643 25.4176C96.8411 25.4176 98.045 24.8611 98.9461 23.8432C98.8884 24.1215 98.8307 24.4144 98.7659 24.7585C98.7514 24.8318 98.7731 24.9123 98.8235 24.9709C98.874 25.0295 98.9461 25.0661 99.0182 25.0661H101.894C102.017 25.0661 102.125 24.9782 102.147 24.8537L105.203 9.37323C105.218 9.3 105.203 9.21945 105.146 9.16087" fill="white"/>
<path d="M126.721 14.0526C125.222 13.3569 123.679 13.0567 122.259 13.1811C119.786 13.4008 118.359 14.902 118.554 17.0989C118.669 18.4243 119.412 19.4422 120.832 20.2038L122.396 21.0386C123.038 21.3901 123.095 21.5512 123.117 21.7562C123.16 22.2322 122.627 22.3494 122.302 22.3786C121.322 22.4665 120.125 22.0931 118.849 21.2875L118.655 21.2583L118.496 21.3827L117.242 23.6309C117.177 23.748 117.213 23.8945 117.321 23.9677C118.878 25.0515 120.68 25.5348 122.519 25.3664C125.279 25.1174 126.743 23.6382 126.541 21.3022C126.418 19.8889 125.755 19.0028 124.234 18.2193L122.821 17.4943C121.992 17.033 121.949 16.9158 121.927 16.6961C121.92 16.5716 121.884 16.1982 122.677 16.1249C123.463 16.0517 124.494 16.2934 125.503 16.784H125.698L125.842 16.6595L126.837 14.3821C126.894 14.2503 126.837 14.1038 126.707 14.0452" fill="white"/>
<path d="M142.292 9.33664C142.241 9.24144 142.148 9.18286 142.04 9.18286H137.967C137.873 9.18286 137.786 9.2268 137.736 9.30735C137.736 9.30735 133.692 15.1363 133.411 15.6929C133.331 15.1656 131.349 9.39522 131.349 9.39522C131.313 9.27806 131.205 9.19018 131.082 9.19018H127.521C127.435 9.19018 127.348 9.23412 127.298 9.30735C127.247 9.38058 127.233 9.47578 127.262 9.56365L131.039 19.2884L129.907 24.9416C129.893 25.0222 129.907 25.1101 129.965 25.176C130.015 25.2419 130.095 25.2785 130.181 25.2785H133.065C133.44 25.2785 133.771 25.0075 133.836 24.6268L134.845 19.3836L142.27 9.62956C142.335 9.54168 142.342 9.43184 142.299 9.33664" fill="white"/>
<path d="M146.596 19.4202C146.531 19.8156 146.401 20.1891 146.221 20.5259C146.04 20.8555 145.824 21.1557 145.565 21.3974C145.312 21.639 145.017 21.8367 144.692 21.9686C144.087 22.2249 143.337 22.2395 142.782 22.0125C142.523 21.9026 142.306 21.7489 142.119 21.5511C141.939 21.3534 141.802 21.1045 141.708 20.8189C141.614 20.5259 141.578 20.2037 141.593 19.8449C141.614 19.4129 141.708 18.9955 141.874 18.6074C142.04 18.2193 142.256 17.8824 142.523 17.5895C142.782 17.3039 143.099 17.0769 143.453 16.9011C143.806 16.7327 144.181 16.6522 144.577 16.6522C144.923 16.6522 145.24 16.7181 145.521 16.8499C145.795 16.9817 146.026 17.1648 146.206 17.3991C146.386 17.6334 146.516 17.9263 146.588 18.2632C146.66 18.6 146.66 18.9882 146.588 19.4129M150.935 13.745C150.885 13.6864 150.82 13.6498 150.741 13.6498H147.929C147.807 13.6498 147.706 13.7377 147.684 13.8548C147.684 13.8548 147.576 14.404 147.511 14.7775V14.7922C146.877 14.0086 145.882 13.5326 144.901 13.4667C144 13.4081 143.135 13.5546 142.292 13.8841C139.524 14.9533 137.686 17.714 137.714 20.7383C137.743 23.3745 139.437 25.1393 142.018 25.2638C143.409 25.3297 144.613 24.9123 145.709 23.9604C145.651 24.2386 145.579 24.6121 145.529 24.8684L145.586 25.0734C145.63 25.132 145.702 25.1613 145.774 25.1613H148.578C148.7 25.1613 148.801 25.0734 148.823 24.9563L150.978 13.95C150.993 13.8768 150.978 13.7962 150.928 13.7377" fill="white"/>
<path d="M60.8557 17.692C61.3891 16.3959 62.3479 15.7295 63.7824 15.7295C65.217 15.7295 65.9739 16.4032 66.0171 17.7067C65.7864 17.7067 61.108 17.692 60.8557 17.692ZM63.8545 13.1592C60.0123 13.1592 57.2153 16.0004 57.2153 19.9255C57.2153 23.3086 59.45 25.403 63.0544 25.403C64.6835 25.403 66.0387 24.9783 67.4589 24.0116C67.5886 23.9238 67.603 23.7407 67.5021 23.6235L65.7288 21.7635C65.6495 21.683 65.5341 21.6683 65.4332 21.7196C64.6619 22.137 63.9266 22.3274 63.1192 22.3274C61.4684 22.3274 60.5097 21.5585 60.4881 20.2257L68.5618 20.1964C68.6843 20.1964 68.7852 20.1086 68.8141 19.9914C68.9943 19.1566 69.1024 18.5488 69.1024 17.9117C69.1024 14.9752 67.0912 13.1445 63.8473 13.1445" fill="white"/>
<path d="M23.1038 0.0146457H22.7145L20.9412 0H0.583902C0.259512 0 0 0.263623 0 0.593151V3.87379C0 7.46931 2.4942 9.4538 7.03566 9.4538L23.1038 9.48309C24.805 9.48309 26.1819 10.8818 26.1819 12.6026C26.1819 14.3235 24.805 15.7295 23.1038 15.7295H5.08211C4.8226 15.7295 4.59192 15.9126 4.52704 16.1689L0.266721 33.275C0.223469 33.4508 0.266721 33.6339 0.367642 33.773C0.475772 33.9121 0.641572 34 0.821788 34H6.53105C8.67203 34 9.70287 32.1913 9.94076 31.2466L11.6204 25.0295H23.0966C29.8871 25.0295 35.409 19.4202 35.409 12.5221C35.409 5.62395 29.8944 0.0146457 23.1038 0.0146457Z" fill="white"/>
</g>
<defs>
<clipPath id="clip0_3_686">
<rect width="151" height="34" fill="white"/>
</clipPath>
</defs>
</svg>
