<svg version="1.2" xmlns="http://www.w3.org/2000/svg" viewBox="0 0 999 225" width="999" height="225">
	<title>Group 61-svg</title>
	<style>
		.s0 { fill: #004add } 
		.s1 { fill: #fa0050 } 
	</style>
	<path id="Layer" fill-rule="evenodd" class="s0" d="m138.5 73h-13.6l-29.2-42.7-6 42.7h-17.5l10.2-73.2h13.7l29.3 42 5.8-42h17.6zm53.4-51.2h17.6l-7.2 51.2h-11.9l-2.1-6.8h-0.8c-3.7 4.6-8.5 8-15.8 8-13.1 0-20-8.5-18.1-22.3l4.3-30.1h17.4l-4 28.9c-0.7 5 1.6 8.8 6.7 8.8 5.4 0 9.2-4.2 9.8-8.5zm68 46.5c0 0-7.4 6.4-20.7 6.4-16 0-24.7-10.4-24.7-23.6 0-17.2 13.3-30.5 30.3-30.5 13.3 0 21.1 8.1 21.1 21.4 0 4.4-1.1 9-1.1 9h-33.4c-0.2 7 3.6 9.9 11 9.9 7.4 0 13.1-3.9 13.1-3.9zm-17.4-35c-4.2 0-7.7 2.6-9.7 8.1h16.5c0.5-4.8-1.8-8.1-6.8-8.1zm55.4 39.7h-12.6l-15.5-51.2h19.2l4.7 26c0.4 1.4 0.6 2.9 0.4 4.5h0.9c0.2-1.6 0.8-3.1 1.5-4.5l12.1-26h19.2zm72.9 0h-12l-1.6-6.2h-0.5c-3.2 4.4-8.5 7.4-17.1 7.4-10.4 0-16.2-6-16.2-14 0-11.7 8.5-19 25.9-19 3.7 0 6.7 0.4 9 1.1l0.2-1.6c0.8-5-3.3-6.5-10.2-6.5-7.1 0-13.3 3.4-13.3 3.4l-3.7-12.4c0 0 8.2-4.7 22.7-4.7 15.4 0 22.9 8.5 21.2 20.9zm-13.9-21.8c-0.8-0.4-2.7-1.1-6.7-1.1-6.2 0-10.1 2.8-10.1 7.3 0 3.3 2.6 5.3 6.2 5.3 4.9 0 9.5-3 10.1-7.8zm98.5-51.3h19l-32 44.8-3.9 28.4h-17.7l3.9-28.2-19.4-45h19.1l9.1 22.2 2.2 7.4 4.2-7.4zm58.4 44.3c0 18-15 30.1-31.2 30.1-13.7 0-23.8-9.1-23.8-23.2 0-18 14.9-30.5 31.3-30.5 13.6 0 23.7 9.3 23.7 23.6zm-29.3 16.3c7.1 0 12.1-6.3 12.1-15.5 0-6.3-3.2-10.6-8.4-10.6-7.2 0-12.2 6.5-12.2 15.5 0 6.5 3.2 10.6 8.5 10.6zm70.6-23.8h-2.7c-6.5 0-11.4 4.3-12.4 11.6l-3.5 24.8h-17.6l7.2-51.3h10.7l1.8 7h0.7c3.6-4.8 8.3-7 15.1-7h2.7zm61.2-14.8l-19.9 22.3 13.7 28.9h-19.2l-8.3-18.8-5.6 5.7-1.8 13.1h-17.6l10.4-73.8h17.6l-5.9 41.5 15.9-18.9z"/>
	<path id="Layer" fill-rule="evenodd" class="s1" d="m20.1 41.4h33.7l-7.5 52.7h1.4c0 0 7.1-11.7 26.2-11.7 22.7 0 37.7 17.8 37.7 43.7 0 35.8-24.1 59.2-53.1 59.2-22.5 0-27.6-15.4-27.6-15.4h-1.4l-7 13.1h-22.3zm18.8 96.6c0 12 5.8 19.7 15.9 19.7 13.1 0 22.7-12.4 22.7-28.3 0-11.5-5.9-19.4-15.9-19.4-13.6 0-22.7 11.4-22.7 28zm160.6-53.3h33.7l-13.8 98.3h-22.9l-4-13.1h-1.4c-7.3 8.9-16.4 15.4-30.4 15.4-25.1 0-38.4-16.4-34.7-42.8l8.2-57.8h33.5l-7.7 55.4c-1.4 9.6 3 16.9 12.8 16.9 10.3 0 17.6-8 18.8-16.2zm112 28.6h-5.2c-12.4 0-21.7 8.2-23.6 22.2l-6.8 47.5h-33.7l13.8-98.3h20.4l3.5 13.4h1.4c6.8-9.1 15.9-13.4 29-13.4h5.1zm98.9-3.7v0.5c0 0 0.9 1.4 0.9 5.6 0 18-15.9 34.6-48.2 34.6-4.9 0-9.3-0.4-13.3-1.1-4 2.1-5.2 3.5-5.2 6.5 0 2.6 2.6 4.7 19 5.4 35.3 1.4 48.2 8.4 48.2 25.5 0 20.6-19.4 38.6-58.3 38.6-33.7 0-47-9.1-47-22.5 0-8.2 4-16.6 17.1-23.6-6.1-4-8.9-9.6-8.9-16.1 0-8.7 5.1-16 17.3-22.5-5.4-4.7-8.4-11.7-8.4-19.4 0-22.5 20.3-38.2 48.9-38.2 5.8 0 11.2 0.7 15.7 1.9h37.6l-3.5 24.8zm-40.7-5.8c-9.1 0-15 6.7-15 14.9 0 6.3 4 11.3 11.3 11.3 9.6 0 15.4-6.8 15.4-15 0-6.3-4-11.2-11.7-11.2zm-9.8 82.8c-4.9-0.2-9.4-0.5-13.1-0.9-3.3 2.1-7.5 6-7.5 11.2 0 4.9 4.7 7.9 17.1 7.9 14.7 0 21.3-3.9 21.3-10.3 0-4.4-3.1-7.4-17.8-7.9zm154.6-12.6c0 0-14.3 12.1-39.8 12.1-30.7 0-47.3-19.9-47.3-45.1 0-33 25.5-58.5 58.1-58.5 25.5 0 40.4 15.4 40.4 40.9 0 8.4-2.1 17.3-2.1 17.3h-64.1c-0.2 13.4 7 19 21.1 19 14.2 0 25.2-7.5 25.2-7.5zm-33.4-67.2c-8 0-14.8 5.2-18.5 15.7h31.6c0.9-9.3-3.5-15.7-13.1-15.7zm122.8 6.6h-5.1c-12.4 0-21.8 8.2-23.7 22.2l-6.7 47.5h-33.7l13.8-98.3h20.3l3.5 13.4h1.4c6.8-9.1 15.9-13.4 29.1-13.4h5.1z"/>
	<path id="Layer" fill-rule="evenodd" class="s0" d="m630.3 84.7l4.2-29.9h33.7l-4.2 29.9h22l-3.7 26h-22l-5.2 37.2c-0.7 5.4 1.4 8.7 7.5 8.7 4.9 0 9.1-2.9 9.1-2.9l5.9 23c-6.6 4.7-18 8.6-28.3 8.6-24.1 0-30.9-15.4-28.1-35.8l5.4-38.8h-16.2l3.8-26zm165.6 42.8c0 34.7-28.8 57.8-59.9 57.8-26.2 0-45.7-17.5-45.7-44.4 0-34.7 28.6-58.5 60.2-58.5 25.9 0 45.4 17.8 45.4 45.1zm-56.2 31.4c13.6 0 23.2-12.2 23.2-29.7 0-12.2-6.1-20.4-16.2-20.4-13.8 0-23.4 12.4-23.4 29.7 0 12.4 6.1 20.4 16.4 20.4zm143.9-74.2h33.7l-13.8 98.3h-22.9l-4-13.1h-1.4c-7.2 8.9-16.4 15.4-30.4 15.4-25 0-38.4-16.3-34.6-42.8l8.2-57.8h33.4l-7.7 55.5c-1.4 9.6 3 16.8 12.9 16.8 10.3 0 17.5-7.9 18.7-16.1zm112 28.5h-5.2c-12.4 0-21.7 8.2-23.6 22.3l-6.8 47.5h-33.7l13.8-98.3h20.4l3.5 13.3h1.4c6.8-9.1 15.9-13.3 29-13.3h5.2z"/>
</svg>