<svg width="499" height="141" viewBox="0 0 499 141" fill="none" xmlns="http://www.w3.org/2000/svg">
<path d="M85.6707 56H78.0547L61.8027 32.2L58.4707 56H48.6787L54.3907 15.2H62.0067L78.3267 38.592L81.5907 15.2H91.3827L85.6707 56ZM118.053 53.348C118.053 53.348 113.905 56.884 106.493 56.884C97.5845 56.884 92.7565 51.104 92.7565 43.76C92.7565 34.172 100.169 26.76 109.621 26.76C117.033 26.76 121.385 31.248 121.385 38.66C121.385 41.108 120.773 43.692 120.773 43.692H102.141C102.073 47.568 104.181 49.2 108.261 49.2C112.409 49.2 115.605 47.024 115.605 47.024L118.053 53.348ZM108.329 33.832C106.017 33.832 104.045 35.328 102.957 38.388H112.137C112.409 35.668 111.117 33.832 108.329 33.832ZM156 56H147.704L145.732 43.284C145.596 42.196 145.528 40.7 145.664 39.476H145.256C145.12 40.7 144.508 42.196 144.032 43.284L138.456 56H130.296L124.108 27.44H134.444L136.008 41.924C136.076 42.74 136.144 43.556 136.144 44.44H136.484C136.62 43.556 137.096 42.4 137.436 41.584L142.944 27.44H151.376L152.94 41.584C153.076 42.808 153.076 43.556 153.076 44.44H153.416C153.552 43.692 153.756 43.08 154.232 41.924L159.876 27.44H170.212L156 56ZM196.177 15.2H206.785L188.969 40.156L186.793 56H176.933L179.109 40.292L168.297 15.2H178.905L184.005 27.576L185.229 31.724L187.541 27.576L196.177 15.2ZM228.745 39.884C228.745 49.948 220.381 56.68 211.337 56.68C203.721 56.68 198.077 51.58 198.077 43.76C198.077 33.696 206.373 26.76 215.553 26.76C223.101 26.76 228.745 31.928 228.745 39.884ZM212.425 48.996C216.369 48.996 219.157 45.46 219.157 40.36C219.157 36.824 217.389 34.444 214.465 34.444C210.453 34.444 207.665 38.048 207.665 43.08C207.665 46.684 209.433 48.996 212.425 48.996ZM251.735 35.736H250.239C246.635 35.736 243.915 38.116 243.371 42.196L241.399 56H231.607L235.619 27.44H241.535L242.555 31.316H242.963C244.935 28.664 247.587 27.44 251.395 27.44H252.891L251.735 35.736ZM285.831 27.44L274.747 39.884L282.363 56H271.687L267.063 45.528L263.935 48.724L262.915 56H253.123L258.903 14.86H268.695L265.431 37.98L274.271 27.44H285.831Z" fill="#004ADD"/>
<path d="M17.5506 41.98H35.4066L31.4386 69.88H32.1826C32.1826 69.88 35.9026 63.68 46.0706 63.68C58.0986 63.68 66.0346 73.104 66.0346 86.868C66.0346 105.84 53.2626 118.24 37.8866 118.24C25.9826 118.24 23.2546 110.056 23.2546 110.056H22.5106L18.7906 117H7.01059L17.5506 41.98ZM27.4706 93.192C27.4706 99.516 30.5706 103.608 35.9026 103.608C42.8466 103.608 47.9306 97.036 47.9306 88.604C47.9306 82.528 44.8306 78.312 39.4986 78.312C32.3066 78.312 27.4706 84.388 27.4706 93.192ZM112.606 64.92H130.462L123.146 117H110.994L108.886 110.056H108.142C104.298 114.768 99.4623 118.24 92.0223 118.24C78.7543 118.24 71.6863 109.56 73.6703 95.548L78.0103 64.92H95.7423L91.6503 94.308C90.9063 99.392 93.2623 103.236 98.4703 103.236C103.926 103.236 107.77 99.02 108.39 94.68L112.606 64.92ZM171.956 80.048H169.228C162.656 80.048 157.696 84.388 156.704 91.828L153.108 117H135.252L142.568 64.92H153.356L155.216 71.988H155.96C159.556 67.152 164.392 64.92 171.336 64.92H174.064L171.956 80.048ZM224.334 78.064V78.312C224.334 78.312 224.83 79.056 224.83 81.288C224.83 90.836 216.398 99.64 199.286 99.64C196.682 99.64 194.326 99.392 192.218 99.02C190.11 100.136 189.49 100.88 189.49 102.492C189.49 103.856 190.854 104.972 199.534 105.344C218.258 106.088 225.078 109.808 225.078 118.86C225.078 129.772 214.786 139.32 194.202 139.32C176.346 139.32 169.278 134.484 169.278 127.416C169.278 123.076 171.386 118.612 178.33 114.892C175.106 112.784 173.618 109.808 173.618 106.336C173.618 101.748 176.346 97.904 182.794 94.432C179.942 91.952 178.33 88.232 178.33 84.14C178.33 72.236 189.118 63.928 204.246 63.928C207.346 63.928 210.198 64.3 212.554 64.92H232.518L230.658 78.064H224.334ZM202.758 74.964C197.922 74.964 194.822 78.56 194.822 82.9C194.822 86.248 196.93 88.852 200.774 88.852C205.858 88.852 208.958 85.256 208.958 80.916C208.958 77.568 206.85 74.964 202.758 74.964ZM197.55 118.86C194.946 118.736 192.59 118.612 190.606 118.364C188.87 119.48 186.638 121.588 186.638 124.316C186.638 126.92 189.118 128.532 195.69 128.532C203.502 128.532 206.974 126.424 206.974 123.076C206.974 120.72 205.362 119.108 197.55 118.86ZM279.968 117H267.692L266.08 110.676H265.584C262.36 115.14 256.904 118.24 248.224 118.24C237.684 118.24 231.732 112.164 231.732 103.98C231.732 92.076 240.412 84.636 258.02 84.636C261.864 84.636 264.84 85.132 267.196 85.752L267.444 84.14C268.188 79.056 264.096 77.568 257.028 77.568C249.836 77.568 243.512 81.04 243.512 81.04L239.792 68.392C239.792 68.392 248.1 63.68 262.856 63.68C278.48 63.68 286.168 72.236 284.432 84.884L279.968 117ZM265.832 94.804C264.964 94.432 263.104 93.688 259.012 93.688C252.688 93.688 248.72 96.54 248.72 101.128C248.72 104.476 251.324 106.584 255.044 106.584C260.004 106.584 264.716 103.484 265.336 98.648L265.832 94.804Z" fill="#FA0050"/>
<path d="M302.874 64.92L305.106 49.048H322.962L320.73 64.92H332.386L330.402 78.684H318.746L316.018 98.4C315.646 101.252 316.762 102.988 319.986 102.988C322.59 102.988 324.822 101.5 324.822 101.5L327.922 113.652C324.45 116.132 318.374 118.24 312.918 118.24C300.146 118.24 296.55 110.056 298.038 99.268L300.89 78.684H292.334L294.318 64.92H302.874ZM390.626 87.612C390.626 105.964 375.374 118.24 358.882 118.24C344.994 118.24 334.702 108.94 334.702 94.68C334.702 76.328 349.83 63.68 366.57 63.68C380.334 63.68 390.626 73.104 390.626 87.612ZM360.866 104.228C368.058 104.228 373.142 97.78 373.142 88.48C373.142 82.032 369.918 77.692 364.586 77.692C357.27 77.692 352.186 84.264 352.186 93.44C352.186 100.012 355.41 104.228 360.866 104.228ZM437.138 64.92H454.994L447.678 117H435.526L433.418 110.056H432.674C428.83 114.768 423.994 118.24 416.554 118.24C403.286 118.24 396.218 109.56 398.202 95.548L402.542 64.92H420.274L416.182 94.308C415.438 99.392 417.794 103.236 423.002 103.236C428.458 103.236 432.302 99.02 432.922 94.68L437.138 64.92ZM496.487 80.048H493.759C487.187 80.048 482.227 84.388 481.235 91.828L477.639 117H459.783L467.099 64.92H477.887L479.747 71.988H480.491C484.087 67.152 488.923 64.92 495.867 64.92H498.595L496.487 80.048Z" fill="#004ADD"/>
</svg>
