<svg width="249" height="35" viewBox="0 0 249 35" fill="none" xmlns="http://www.w3.org/2000/svg">
<g clip-path="url(#clip0_1564_5658)">
<path d="M61.7755 2.97656C60.0389 2.97656 58.7573 4.2506 58.7281 6.00494C58.703 7.40515 59.5964 8.23958 61.1159 8.23958C62.8526 8.23958 64.1342 6.96555 64.1634 5.21121C64.1885 3.81099 63.2951 2.97656 61.7755 2.97656Z" fill="white"/>
<path d="M56.4073 3.68445C56.3446 3.60711 56.2486 3.56641 56.1484 3.56641H52.3412C52.1784 3.56641 52.0406 3.67631 52.0114 3.83505C52.0114 3.83505 50.5419 10.9379 50.4501 11.4304C49.4941 9.78597 47.6238 8.77651 45.2986 8.77651C40.6689 8.77651 37.3125 12.4073 37.3125 17.4098C37.3125 21.525 39.8507 24.2929 43.6287 24.2929C45.4447 24.2929 47.0352 23.5846 48.225 22.3024C48.1457 22.6566 48.0705 23.027 47.987 23.4584C47.9703 23.552 47.9954 23.6538 48.0622 23.7271C48.1248 23.8003 48.2208 23.8451 48.321 23.8451H52.1199C52.2827 23.8451 52.4205 23.7311 52.4497 23.5765L56.4824 3.96531C56.5033 3.86762 56.4741 3.76993 56.4114 3.69259L56.4073 3.68445ZM49.1058 16.5225C49.0098 17.0516 48.8387 17.5441 48.5924 17.9878C48.346 18.4315 48.0413 18.8182 47.6865 19.1479C47.3358 19.4694 46.9267 19.7259 46.48 19.909C45.6409 20.251 44.6014 20.2713 43.8374 19.966C43.4826 19.8236 43.1737 19.62 42.9232 19.3555C42.6727 19.0909 42.4807 18.7653 42.3555 18.3867C42.226 18.0041 42.1759 17.5645 42.201 17.0923C42.2302 16.5184 42.3638 15.9648 42.5892 15.452C42.8147 14.9391 43.1152 14.4873 43.4868 14.1047C43.8541 13.7261 44.2883 13.4208 44.7767 13.197C45.261 12.9772 45.787 12.8632 46.3339 12.8632C46.814 12.8632 47.2523 12.9527 47.6364 13.1237C48.0163 13.2946 48.3377 13.5429 48.5882 13.8564C48.8387 14.1698 49.014 14.5565 49.11 15.0001C49.206 15.452 49.206 15.9648 49.11 16.5265L49.1058 16.5225Z" fill="white"/>
<path d="M62.377 10.3732H58.4486C58.2816 10.3732 58.1397 10.475 58.1063 10.6174L55.4471 23.4717C55.4262 23.5613 55.4554 23.6549 55.5222 23.7241C55.589 23.7933 55.685 23.834 55.7894 23.834H59.7177C59.8847 23.834 60.0266 23.7322 60.06 23.5898L62.7193 10.7314C62.7401 10.6419 62.7109 10.5523 62.6441 10.479C62.5773 10.4098 62.4813 10.3691 62.377 10.3691V10.3732Z" fill="white"/>
<path d="M5.18453 22.6689C5.5853 20.9309 6.32421 17.0803 6.34508 16.9785C6.52041 16.9785 10.9664 17.007 10.9664 17.007C16.2723 17.007 19.5661 14.2432 19.5661 9.7902C19.5661 5.89076 16.8234 3.5625 12.2313 3.5625H4.34543C4.17845 3.5625 4.03651 3.67647 4.00729 3.83522L0.00381655 23.3243C-0.0170566 23.422 0.0205151 23.5237 0.0873091 23.601C0.154103 23.6784 0.25012 23.7232 0.354485 23.7232H1.9158L3.8737 23.7109C3.8737 23.7109 4.9424 23.7232 5.18871 22.6689H5.18453ZM11.125 12.7901C11.125 12.7901 7.32194 12.8104 7.20505 12.8104C7.2301 12.6924 8.21531 7.92596 8.24871 7.72651C8.44074 7.73465 11.8848 7.75908 11.8848 7.75908C13.6215 7.75908 14.5774 8.54873 14.5774 9.98151C14.5774 11.7684 13.3209 12.7901 11.125 12.7901V12.7901Z" fill="white"/>
<path d="M91.4951 8.77344C86.3269 8.77344 82.5781 12.3676 82.5781 17.3131C82.5781 21.5463 85.5546 24.2857 90.1634 24.2857C95.3274 24.2857 99.0763 20.6916 99.0763 15.746C99.0763 11.5128 96.0998 8.77344 91.491 8.77344H91.4951ZM90.464 19.91C88.5103 19.91 87.3456 18.8355 87.3456 17.0404C87.3456 14.7854 88.9653 13.1491 91.1946 13.1491C93.1483 13.1491 94.313 14.2237 94.313 16.0187C94.313 18.2737 92.6974 19.91 90.4682 19.91H90.464Z" fill="white"/>
<path d="M83.1419 3.68445C83.0793 3.60711 82.9833 3.56641 82.8831 3.56641H79.0758C78.913 3.56641 78.7752 3.67631 78.7418 3.83505C78.7418 3.83505 77.2724 10.9379 77.1805 11.4304C76.2245 9.78597 74.3543 8.77651 72.029 8.77651C67.3994 8.77651 64.043 12.4073 64.043 17.4098C64.043 21.525 66.5811 24.2929 70.3592 24.2929C72.1751 24.2929 73.7657 23.5846 74.9555 22.3024C74.8761 22.6566 74.801 23.027 74.7175 23.4584C74.7008 23.552 74.7258 23.6538 74.7926 23.7271C74.8553 23.8003 74.9513 23.8451 75.0515 23.8451H78.8504C79.0132 23.8451 79.151 23.7311 79.1802 23.5765L83.2129 3.96531C83.2337 3.86762 83.2045 3.76993 83.1419 3.69259V3.68445ZM75.9031 16.5225C75.8071 17.0516 75.6359 17.5441 75.3896 17.9878C75.1433 18.4315 74.8386 18.8182 74.4795 19.1479C74.1289 19.4694 73.7198 19.7259 73.2731 19.909C72.434 20.251 71.3945 20.2713 70.6305 19.966C70.2757 19.8236 69.9668 19.62 69.7163 19.3555C69.4658 19.0909 69.2738 18.7653 69.1485 18.3867C69.0191 18.0041 68.969 17.5645 68.9941 17.0923C69.0233 16.5184 69.1569 15.9648 69.3823 15.452C69.6077 14.9391 69.9083 14.4873 70.2799 14.1047C70.6472 13.7261 71.0814 13.4208 71.5698 13.197C72.0541 12.9772 72.5801 12.8632 73.127 12.8632C73.607 12.8632 74.0454 12.9527 74.4294 13.1237C74.8093 13.2946 75.1308 13.5429 75.3813 13.8564C75.6317 14.1698 75.8071 14.5565 75.9031 15.0001C75.9991 15.452 75.9991 15.9648 75.9031 16.5265V16.5225Z" fill="white"/>
<path d="M111.63 9.89944C109.647 9.01617 107.61 8.63355 105.743 8.79637C102.475 9.07722 100.6 10.9781 100.851 13.7582C101.001 15.4352 101.986 16.7214 103.861 17.6902L105.927 18.7444C106.775 19.1881 106.85 19.3916 106.875 19.6521C106.929 20.2505 106.224 20.4011 105.802 20.4377C104.508 20.5476 102.934 20.0714 101.247 19.0578C101.168 19.009 101.072 18.9968 100.989 19.0212C100.901 19.0415 100.826 19.0985 100.78 19.1759L99.1225 22.0251C99.0349 22.1717 99.0808 22.3589 99.2269 22.4566C101.285 23.8243 103.656 24.4389 106.086 24.2313C109.726 23.922 111.659 22.0455 111.392 19.0823C111.233 17.2954 110.348 16.1638 108.348 15.1787L106.487 14.2588C105.393 13.6768 105.334 13.5262 105.309 13.2494C105.297 13.0947 105.251 12.6185 106.299 12.5289C107.338 12.4394 108.695 12.7446 110.031 13.3674C110.11 13.4041 110.206 13.4081 110.29 13.3796C110.373 13.3511 110.444 13.286 110.482 13.2046L111.797 10.3228C111.872 10.1599 111.797 9.96864 111.63 9.8913V9.89944Z" fill="white"/>
<path d="M132.181 4.1446C132.118 4.02249 131.993 3.94922 131.855 3.94922H126.478C126.357 3.94922 126.24 4.01027 126.174 4.10796C126.174 4.10796 120.834 11.4876 120.463 12.1958C120.363 11.5283 117.741 4.21786 117.741 4.21786C117.695 4.06726 117.553 3.96143 117.39 3.96143H112.685C112.569 3.96143 112.456 4.01842 112.385 4.11203C112.318 4.20565 112.297 4.32777 112.339 4.43767L117.328 16.7587L115.833 23.9186C115.812 24.0244 115.841 24.1302 115.912 24.2157C115.983 24.2971 116.088 24.346 116.196 24.346H120.004C120.504 24.346 120.93 24 121.026 23.5237L122.358 16.8849L132.156 4.52721C132.239 4.41731 132.252 4.27485 132.189 4.15274L132.181 4.1446Z" fill="white"/>
<path d="M143.602 9.73264C143.54 9.65937 143.448 9.61459 143.348 9.61459H139.641C139.482 9.61459 139.349 9.72449 139.319 9.8751C139.319 9.8751 139.177 10.5671 139.09 11.0474V11.0637C138.246 10.0745 136.94 9.46399 135.641 9.38665C134.456 9.31338 133.308 9.50062 132.197 9.91173C128.549 11.2672 126.119 14.7636 126.157 18.598C126.19 21.9357 128.428 24.1703 131.834 24.3291C133.667 24.4145 135.257 23.8813 136.706 22.6765C136.631 23.0347 136.535 23.5028 136.472 23.8243C136.455 23.918 136.481 24.0116 136.543 24.0848C136.606 24.1581 136.698 24.1988 136.794 24.1988H140.492C140.651 24.1988 140.785 24.0889 140.814 23.9383L143.661 9.99314C143.678 9.89952 143.653 9.80183 143.59 9.72857L143.602 9.73264ZM137.862 16.9128C137.77 17.4175 137.608 17.8856 137.37 18.309C137.136 18.7323 136.844 19.1027 136.501 19.4161C136.163 19.7255 135.779 19.9697 135.349 20.1406C134.548 20.4663 133.558 20.4866 132.828 20.1935C132.49 20.0592 132.193 19.8638 131.955 19.6115C131.713 19.3591 131.534 19.0498 131.413 18.6875C131.291 18.3212 131.241 17.906 131.266 17.4501C131.296 16.9006 131.421 16.3755 131.638 15.8871C131.855 15.3986 132.143 14.9672 132.494 14.6008C132.844 14.2386 133.258 13.9496 133.725 13.7338C134.189 13.5222 134.685 13.4163 135.211 13.4163C135.671 13.4163 136.088 13.5018 136.455 13.6646C136.819 13.8275 137.123 14.0635 137.361 14.3647C137.599 14.666 137.77 15.0323 137.862 15.4556C137.954 15.8871 137.954 16.3796 137.862 16.9128Z" fill="white"/>
<path d="M28.6539 8.75977C23.5775 8.75977 19.8955 12.3661 19.8955 17.332C19.8955 21.6141 22.8511 24.272 27.6019 24.272C29.756 24.272 31.5386 23.7347 33.413 22.5136C33.5799 22.4037 33.605 22.1676 33.4672 22.0252L31.1294 19.6684C31.0292 19.5667 30.8706 19.5463 30.7454 19.6155C29.7226 20.1447 28.7582 20.3848 27.6937 20.3848C25.5146 20.3848 24.2496 19.412 24.2246 17.7268L34.8783 17.6943C35.0369 17.6943 35.1747 17.5885 35.2081 17.4378C35.4502 16.3836 35.5879 15.6102 35.5879 14.8002C35.5879 11.0758 32.9329 8.76384 28.6539 8.76384V8.75977ZM24.7005 14.5072C25.4018 12.8627 26.6709 12.0161 28.562 12.0161C30.4531 12.0161 31.4509 12.8709 31.5093 14.5234C31.2046 14.5234 25.0261 14.5072 24.6963 14.5072H24.7005Z" fill="white"/>
<path d="M222.921 16.0625C222.02 16.0625 221.168 16.6324 220.575 17.7965H224.157C224.412 16.7626 224.011 16.0625 222.921 16.0625Z" fill="white"/>
<path d="M184.974 21.1875C184.874 21.8876 185.366 22.3272 186.164 22.3272C187.224 22.3272 188.326 21.6801 188.606 20.6706L188.827 19.8687C188.652 19.7914 188.276 19.6367 187.399 19.6367C186.047 19.6367 185.112 20.231 184.974 21.1875Z" fill="white"/>
<path d="M248.971 2.63804C248.583 1.53496 247.364 0.818573 246.216 0.818573L245.552 0.733095L238.948 0.667969H158.694C157.492 0.667969 156.248 1.62044 155.918 2.79271L152.612 14.5562C148.984 27.4552 156.327 34.5621 173.281 34.5621L237.44 34.672C237.461 34.672 237.486 34.672 237.507 34.672C237.833 34.6313 240.496 34.2406 241.594 32.2013C241.615 32.1606 241.636 32.1158 241.648 32.0711C243.836 24.5815 248.52 4.90118 248.983 2.95553C249.008 2.85377 249.008 2.74794 248.971 2.64618V2.63804ZM174.22 24.4961L176.708 15.9319L171.978 20.3809H170.358L168.221 15.9035L165.729 24.492H161.909L166.413 8.9675H169.519L172.537 15.6185L179.392 8.9675H182.498L178.048 24.492H174.228L174.22 24.4961ZM193.102 17.7962L191.177 24.4961H188.551L188.397 23.1772H188.293C187.466 24.1094 186.205 24.7566 184.348 24.7566C182.093 24.7566 181.004 23.4866 181.25 21.7811C181.609 19.2982 183.692 17.7433 187.462 17.7433C188.284 17.7433 188.906 17.845 189.39 17.9753L189.495 17.6374C189.808 16.5751 188.977 16.2657 187.466 16.2657C185.955 16.2657 184.469 16.9902 184.469 16.9902L184.055 14.3526C184.055 14.3526 185.976 13.3676 189.132 13.3676C192.476 13.3676 193.862 15.1545 193.11 17.7921L193.102 17.7962ZM199.368 19.2452L197.836 24.4961H194.016L197.155 13.6281H199.464L199.648 15.1016H199.806C200.72 14.0921 201.823 13.6281 203.309 13.6281H203.893L202.987 16.7827H202.403C200.996 16.7827 199.802 17.6904 199.368 19.2412V19.2452ZM210.047 24.4961L208.819 20.5111L207.421 21.7282L206.623 24.4961H202.804L207.325 8.84132H211.144L208.598 17.6374L212.626 13.6281H217.139L212.13 18.362L214.213 24.492H210.047V24.4961ZM227.747 17.8979C227.613 18.8301 227.229 19.811 227.229 19.811H219.957C219.719 21.2845 220.45 21.9073 222.04 21.9073C223.631 21.9073 225.025 21.081 225.025 21.081L225.635 23.4866C225.635 23.4866 223.819 24.8339 220.93 24.8339C217.452 24.8339 215.887 22.6359 216.292 19.8395C216.818 16.1924 220.12 13.3717 223.81 13.3717C226.703 13.3717 228.152 15.0812 227.747 17.8979ZM237.691 16.5018H235.195L234.013 20.617C233.846 21.2112 234.034 21.5735 234.723 21.5735C235.278 21.5735 235.804 21.2642 235.804 21.2642L236.1 23.8C235.282 24.317 233.917 24.7566 232.752 24.7566C230.018 24.7566 229.496 23.047 230.139 20.7961L231.371 16.5018H229.538L230.377 13.6322H232.205L233.161 10.3189H236.981L236.025 13.6322H238.522L237.683 16.5018H237.691Z" fill="white"/>
</g>
<defs>
<clipPath id="clip0_1564_5658">
<rect width="249" height="34" fill="white" transform="translate(0 0.667969)"/>
</clipPath>
</defs>
</svg>
