<svg width="269" height="37" viewBox="0 0 269 37" fill="none" xmlns="http://www.w3.org/2000/svg">
<path d="M68.2706 1.77759C66.3604 1.77759 64.9468 3.24175 64.9086 5.24534C64.9086 6.8251 65.8637 7.78837 67.5447 7.78837C69.4549 7.78837 70.8685 6.3242 70.9067 4.32061C70.9067 2.70232 69.9516 1.77759 68.2706 1.77759Z" fill="white"/>
<path d="M62.3108 2.58674C62.3108 2.58674 62.1198 2.43262 62.0052 2.43262H57.8027C57.8027 2.43262 57.4589 2.54821 57.4207 2.74086C57.4207 2.74086 55.8161 10.8708 55.7015 11.4103C54.6318 9.52225 52.5688 8.36633 50.0091 8.36633C44.8898 8.36633 41.184 12.5276 41.184 18.2302C41.184 22.9309 43.9729 26.0904 48.1753 26.0904C50.1619 26.0904 51.9575 25.2813 53.2564 23.8171C53.18 24.241 53.1036 24.6648 52.989 25.1272C52.989 25.2428 52.989 25.3583 53.0654 25.4354C53.1418 25.5125 53.2564 25.5895 53.3328 25.5895H57.5353C57.5353 25.5895 57.8791 25.4739 57.9173 25.2813L62.3872 2.85645C62.3872 2.85645 62.3872 2.62527 62.3108 2.54821M54.2497 17.2284C54.1351 17.8449 53.9441 18.3843 53.6767 18.8852C53.4093 19.3861 53.0654 19.8485 52.6834 20.1952C52.3013 20.5805 51.8429 20.8503 51.3462 21.0814C50.4293 21.4668 49.2832 21.5053 48.4427 21.1585C48.0607 21.0044 47.7168 20.7732 47.4112 20.465C47.1438 20.1567 46.9146 19.7714 46.8 19.3476C46.6471 18.9237 46.6089 18.4228 46.6471 17.8834C46.6471 17.2284 46.8382 16.6119 47.0674 15.9954C47.2966 15.4174 47.6404 14.878 48.0607 14.4542C48.4809 14.0303 48.9394 13.6836 49.4742 13.4138C50.0091 13.1441 50.5822 13.0285 51.1934 13.0285C51.7283 13.0285 52.2249 13.1441 52.6452 13.3368C53.0654 13.5294 53.4093 13.7992 53.6767 14.1845C53.9441 14.5312 54.1351 14.9936 54.2497 15.4945C54.3644 15.9954 54.3644 16.6119 54.2497 17.2284Z" fill="white"/>
<path d="M68.92 10.2157H64.5648C64.5648 10.2157 64.2209 10.3313 64.1827 10.4854L61.241 25.1656L61.3174 25.4353C61.3174 25.4353 61.5085 25.5509 61.6231 25.5509H65.9783C65.9783 25.5509 66.3222 25.4353 66.3604 25.2812L69.3021 10.601L69.2257 10.3313C69.2257 10.3313 69.0346 10.2157 68.92 10.2157Z" fill="white"/>
<path d="M5.7306 24.2794C6.18905 22.3144 6.99134 17.8834 7.02954 17.7678C7.22056 17.7678 12.1489 17.7678 12.1489 17.7678C17.9941 17.7678 21.6617 14.6083 21.6617 9.52221C21.6617 5.05266 18.6436 2.39404 13.5624 2.39404H4.81371C4.81371 2.39404 4.46987 2.50963 4.43167 2.70229L0 25.0115C0 25.0115 0 25.2427 0.076408 25.3198C0.152816 25.3968 0.267428 25.4739 0.38204 25.4739H4.27885C4.27885 25.4739 5.46318 25.4739 5.7306 24.2794ZM12.3017 12.99C12.3017 12.99 8.09925 12.99 7.98464 12.99C7.98464 12.8744 9.09256 7.40303 9.13076 7.17184C9.35999 7.17184 13.1422 7.17184 13.1422 7.17184C15.0524 7.17184 16.1221 8.05805 16.1221 9.71486C16.1221 11.757 14.7468 12.9129 12.3017 12.9129" fill="white"/>
<path d="M101.088 8.40491C95.3954 8.40491 91.2312 12.5277 91.2312 18.1532C91.2312 23.008 94.5167 26.129 99.5979 26.129C105.29 26.129 109.455 22.0062 109.455 16.3807C109.455 11.5259 106.169 8.40491 101.088 8.40491ZM99.9417 21.12C97.8023 21.12 96.5034 19.887 96.5034 17.8449C96.5034 15.2634 98.299 13.4139 100.744 13.4139C102.883 13.4139 104.182 14.6469 104.182 16.689C104.182 19.2705 102.387 21.1585 99.9417 21.1585" fill="white"/>
<path d="M91.8425 2.58674C91.8425 2.58674 91.6514 2.43262 91.5368 2.43262H87.3344C87.3344 2.43262 86.9906 2.54821 86.9524 2.74086C86.9524 2.74086 85.3478 10.8708 85.2332 11.4103C84.1635 9.52225 82.1004 8.36633 79.5408 8.36633C74.4214 8.36633 70.7156 12.5276 70.7156 18.2302C70.7156 22.9309 73.5045 26.0904 77.707 26.0904C79.6936 26.0904 81.4892 25.2813 82.7881 23.8171C82.7117 24.241 82.6353 24.6648 82.5207 25.1272C82.5207 25.2428 82.5207 25.3583 82.5971 25.4354C82.6735 25.5125 82.7881 25.5895 82.8645 25.5895H87.067C87.067 25.5895 87.4108 25.4739 87.449 25.2813L91.9189 2.85645C91.9189 2.85645 91.9189 2.62527 91.8425 2.54821M83.8578 17.2284C83.7432 17.8449 83.5522 18.3843 83.2848 18.8852C83.0173 19.3861 82.6735 19.8485 82.2915 20.1952C81.9094 20.5805 81.451 20.8503 80.9543 21.0814C80.0374 21.4668 78.8913 21.5053 78.0508 21.1585C77.6688 21.0044 77.3249 20.7732 77.0575 20.465C76.7901 20.1567 76.5609 19.7714 76.4462 19.3476C76.2934 18.9237 76.2552 18.4228 76.2934 17.8834C76.2934 17.2284 76.4844 16.6119 76.7137 15.9954C76.9811 15.4174 77.2867 14.878 77.707 14.4542C78.1272 14.0303 78.5857 13.6836 79.1205 13.4138C79.6554 13.1441 80.2284 13.0285 80.8397 13.0285C81.3746 13.0285 81.8712 13.1441 82.2915 13.3368C82.7117 13.5294 83.0555 13.7992 83.3612 14.1845C83.6286 14.5312 83.8196 14.9936 83.9342 15.4945C84.0488 15.9954 84.0488 16.6119 83.9342 17.2284" fill="white"/>
<path d="M123.323 9.67632C121.145 8.67453 118.891 8.21216 116.828 8.40481C113.237 8.71306 111.136 10.9093 111.441 14.0688C111.594 15.9953 112.702 17.4595 114.765 18.5769L117.057 19.7713C117.974 20.2722 118.089 20.5034 118.089 20.8117C118.165 21.5052 117.363 21.6593 116.904 21.6979C115.491 21.8135 113.733 21.274 111.861 20.1181H111.556L111.327 20.2337L109.493 23.5088C109.493 23.5088 109.455 23.8941 109.607 24.0097C111.9 25.5895 114.497 26.283 117.172 26.0518C121.183 25.7051 123.323 23.5473 123.017 20.1567C122.826 18.1145 121.871 16.8045 119.655 15.6871L117.592 14.6468C116.369 13.9918 116.331 13.7991 116.293 13.4909C116.293 13.2982 116.217 12.7588 117.401 12.6817C118.547 12.5661 120.037 12.9129 121.527 13.645H121.794L122.024 13.4523L123.475 10.1772C123.475 10.1772 123.475 9.75338 123.284 9.67632" fill="white"/>
<path d="M146.054 2.85643C146.054 2.85643 145.863 2.62524 145.71 2.62524H139.789C139.789 2.62524 139.521 2.70231 139.445 2.8179C139.445 2.8179 133.561 11.2561 133.141 12.0652C133.026 11.2946 130.123 2.93349 130.123 2.93349C130.085 2.74084 129.932 2.62524 129.741 2.62524H124.545C124.545 2.62524 124.278 2.70231 124.201 2.77937C124.125 2.89496 124.087 3.01055 124.163 3.16467L129.664 17.2284L128.022 25.3968C128.022 25.3968 128.022 25.628 128.098 25.7436C128.175 25.8207 128.289 25.8977 128.404 25.8977H132.606C133.141 25.8977 133.638 25.5124 133.752 24.973L135.242 17.3825L146.054 3.24173C146.054 3.24173 146.169 2.97202 146.054 2.8179" fill="white"/>
<path d="M158.661 9.25258C158.661 9.25258 158.509 9.13699 158.394 9.13699H154.306C154.306 9.13699 153.962 9.25258 153.962 9.44524C153.962 9.44524 153.809 10.2158 153.695 10.7938C152.778 9.67642 151.326 8.98287 149.874 8.90581C148.575 8.82875 147.315 9.0214 146.054 9.5223C142.004 11.0635 139.33 15.0707 139.368 19.4632C139.407 23.2777 141.89 25.8208 145.634 26.0134C147.659 26.129 149.416 25.5125 151.021 24.1254C150.944 24.5492 150.83 25.0501 150.753 25.4354L150.83 25.7437C150.83 25.7437 150.982 25.8593 151.097 25.8593H155.185C155.185 25.8593 155.49 25.7437 155.529 25.551L158.661 9.59936C158.661 9.59936 158.661 9.36817 158.585 9.29111M152.243 17.4981C152.128 18.0761 151.976 18.6155 151.708 19.0779C151.441 19.5788 151.135 20.0026 150.753 20.3494C150.371 20.6962 149.951 20.9659 149.492 21.1971C148.614 21.5824 147.506 21.5824 146.704 21.2741C146.321 21.12 146.016 20.8888 145.748 20.6191C145.481 20.3494 145.29 19.9641 145.137 19.5788C144.984 19.155 144.946 18.6926 144.984 18.1532C144.984 17.5367 145.137 16.9202 145.405 16.3807C145.634 15.8413 145.978 15.3404 146.36 14.9166C146.742 14.4927 147.2 14.1845 147.735 13.9148C148.232 13.6836 148.805 13.568 149.378 13.568C149.874 13.568 150.333 13.6451 150.753 13.8377C151.173 14.0304 151.479 14.3001 151.746 14.6469C152.014 14.9936 152.205 15.4175 152.281 15.8799C152.396 16.3808 152.396 16.9202 152.281 17.5367" fill="white"/>
<path d="M31.6711 8.40491C26.0551 8.40491 22.0055 12.5277 22.0055 18.1917C22.0055 23.0851 25.2528 26.129 30.525 26.129C32.8936 26.129 34.8802 25.5125 36.9433 24.1254C37.1343 24.0098 37.1725 23.7401 37.0197 23.586L34.4218 20.8888C34.4218 20.8888 34.1544 20.7347 34.0016 20.8118C32.8554 21.4283 31.8239 21.698 30.6396 21.698C28.2328 21.698 26.8192 20.5806 26.8192 18.6541H38.586C38.586 18.6541 38.9299 18.4999 38.9681 18.3073C39.2355 17.1128 39.3883 16.2266 39.3883 15.3019C39.3883 11.0635 36.4466 8.40491 31.7093 8.40491M27.3541 14.9551C28.1181 13.0671 29.5317 12.1038 31.6329 12.1038C33.7341 12.1038 34.842 13.0671 34.8802 14.9551C34.5364 14.9551 27.7361 14.9551 27.3541 14.9551Z" fill="white"/>
<path d="M220.819 16.9972C220.59 16.7275 220.322 16.4963 219.979 16.3037C219.635 16.1496 219.253 16.0725 218.833 16.0725C218.336 16.0725 217.877 16.1881 217.457 16.3808C217.037 16.5734 216.655 16.8431 216.311 17.2284C215.967 17.5752 215.738 17.999 215.509 18.4614C215.318 18.9238 215.203 19.4247 215.165 19.9641C215.165 20.3879 215.165 20.7732 215.318 21.1586C215.432 21.5053 215.585 21.8136 215.814 22.0448C216.044 22.2759 216.311 22.4686 216.617 22.6227C217.304 22.8924 218.221 22.8924 218.947 22.5842C219.329 22.4301 219.711 22.1989 220.017 21.8906C220.322 21.5824 220.59 21.2356 220.819 20.8118C221.048 20.4265 221.201 19.9641 221.278 19.4632C221.354 18.9623 221.354 18.4614 221.278 18.0761C221.201 17.6908 221.048 17.3055 220.819 17.0358V16.9972Z" fill="white"/>
<path d="M204.353 16.9972C204.124 16.7275 203.857 16.4963 203.513 16.3037C203.169 16.1496 202.787 16.0725 202.367 16.0725C201.87 16.0725 201.412 16.1881 200.991 16.3808C200.571 16.5734 200.189 16.8431 199.845 17.2284C199.501 17.5752 199.272 17.999 199.043 18.4614C198.852 18.9238 198.737 19.4247 198.699 19.9641C198.699 20.3879 198.699 20.7732 198.852 21.1586C198.967 21.5053 199.119 21.8136 199.349 22.0448C199.578 22.2759 199.845 22.4686 200.151 22.6227C200.839 22.8924 201.755 22.8924 202.481 22.5842C202.863 22.4301 203.245 22.1989 203.551 21.8906C203.857 21.5824 204.124 21.2356 204.353 20.8118C204.583 20.4265 204.735 19.9641 204.812 19.4632C204.888 18.9623 204.888 18.4614 204.812 18.0761C204.735 17.6908 204.583 17.3055 204.353 17.0358V16.9972Z" fill="white"/>
<path d="M235.337 16.3036C233.274 16.3036 231.784 17.8833 231.784 20.0411C231.784 21.7749 232.853 22.8153 234.687 22.8153C236.75 22.8153 238.24 21.2355 238.24 19.0778C238.24 17.3439 237.17 16.3421 235.337 16.3421V16.3036Z" fill="white"/>
<path d="M266.931 0.429077H172.911C171.803 0.429077 170.81 1.23822 170.581 2.31708L167.563 16.5734C165.385 26.8611 173.179 36.5708 183.608 36.5708H259.864C260.972 36.5708 261.965 35.8002 262.194 34.6828L268.956 2.9721C269.224 1.66206 268.23 0.429077 266.893 0.429077L266.931 0.429077ZM186.245 20.0026C186.245 20.0026 182.119 20.0026 181.966 20.0026C181.966 20.0797 181.278 23.7786 180.896 25.474C180.667 26.4758 179.712 26.4758 179.673 26.4758H177.878H176.426C176.426 26.4758 176.273 26.4758 176.159 26.3602C176.044 26.2446 176.082 26.0905 176.082 26.0905L179.788 7.40312C179.788 7.40312 179.941 7.13341 180.094 7.13341H187.391C191.631 7.13341 194.191 9.36818 194.191 13.1057C194.191 17.3826 191.135 20.0412 186.206 20.0412L186.245 20.0026ZM207.219 26.3987H203.78C203.78 26.3987 203.627 26.3987 203.551 26.2831C203.436 26.2061 203.475 26.0134 203.475 26.0134C203.513 25.7052 203.627 25.2428 203.704 24.9346C202.367 26.0905 200.877 26.5914 199.196 26.5143C196.063 26.3602 193.962 24.2025 193.924 21.043C193.924 17.344 196.139 14.0304 199.54 12.7203C200.571 12.335 201.641 12.1424 202.71 12.2194C203.895 12.2965 205.117 12.8745 205.92 13.8377C205.996 13.3754 206.149 12.7203 206.149 12.7203C206.149 12.5662 206.302 12.4892 206.454 12.4892H209.893L210.122 12.6048L210.198 12.8745L207.562 26.2446C207.562 26.2446 207.41 26.4758 207.257 26.4758L207.219 26.3987ZM224.334 24.4337C224.258 24.8575 224.143 25.551 224.028 25.9749C223.379 29.6738 220.666 32.8333 215.929 32.8333C211.956 32.8333 209.702 30.9068 209.74 27.8244C209.74 27.6317 209.893 27.4391 210.122 27.4391H213.599C213.599 27.4391 213.904 27.5546 213.981 27.7088C214.21 28.595 215.089 29.1344 216.388 29.1344C217.992 29.1344 219.406 28.2867 219.826 25.9749L219.979 25.0887C218.68 26.129 217.266 26.5914 215.662 26.5143C212.529 26.3602 210.428 24.2025 210.389 21.043C210.389 17.344 212.605 14.0304 216.005 12.7203C217.037 12.335 218.107 12.1424 219.176 12.2194C220.361 12.2965 221.583 12.8745 222.386 13.8377C222.462 13.3754 222.615 12.7203 222.615 12.7203C222.615 12.5662 222.768 12.4892 222.92 12.4892H226.359L226.588 12.6048L226.664 12.8745L224.372 24.5107L224.334 24.4337ZM234.343 26.9767C230.065 26.9767 227.314 24.3566 227.314 20.3109C227.314 15.5716 230.79 12.1424 235.566 12.1424C239.845 12.1424 242.595 14.7625 242.595 18.8082C242.595 23.5475 239.119 26.9767 234.343 26.9767ZM254.897 13.6066L253.675 16.3808L253.484 16.5349H253.254C252.032 15.9184 250.771 15.6487 249.778 15.7257C248.823 15.8028 248.861 16.2652 248.861 16.4193C248.861 16.689 248.937 16.8431 249.969 17.3826L251.688 18.2688C253.56 19.232 254.362 20.3109 254.515 22.0062C254.744 24.8575 252.987 26.6299 249.587 26.9382C247.333 27.1308 245.155 26.5528 243.245 25.2428C243.13 25.1657 243.054 24.9731 243.169 24.819L244.697 22.0833L244.888 21.9292H245.117C246.683 22.931 248.135 23.3933 249.319 23.2777C249.701 23.2777 250.351 23.0851 250.313 22.5071C250.313 22.2374 250.236 22.0448 249.434 21.6209L247.524 20.6191C245.766 19.6944 244.888 18.4614 244.735 16.8431C244.506 14.1845 246.225 12.3736 249.281 12.1039C251 11.9497 252.911 12.335 254.744 13.1442C254.897 13.2212 254.974 13.4139 254.897 13.568V13.6066Z" fill="white"/>
<path d="M187.123 11.1405C187.123 11.1405 183.914 11.1405 183.761 11.1405C183.761 11.3332 182.806 15.8798 182.806 15.9954C182.921 15.9954 186.436 15.9954 186.436 15.9954C188.46 15.9954 189.645 15.0321 189.645 13.2982C189.645 11.9111 188.766 11.179 187.161 11.179L187.123 11.1405Z" fill="white"/>
</svg>
